<?xml version="1.0" standalone="no"?>
<!DOCTYPE svg PUBLIC "-//W3C//DTD SVG 20010904//EN"
 "http://www.w3.org/TR/2001/REC-SVG-20010904/DTD/svg10.dtd">
<svg version="1.0" xmlns="http://www.w3.org/2000/svg"
 width="626.000000pt" height="626.000000pt" viewBox="0 0 626.000000 626.000000"
 preserveAspectRatio="xMidYMid meet">

<g transform="translate(0.000000,626.000000) scale(0.100000,-0.100000)"
fill="#000000" stroke="none">
<path d="M3695 5855 c-33 -19 -59 -40 -57 -46 1 -6 -2 -8 -7 -5 -5 4 -25 -2
-43 -12 -191 -107 -419 -239 -443 -256 -16 -12 -47 -30 -67 -40 -21 -10 -35
-23 -31 -29 3 -6 1 -7 -4 -4 -14 9 -105 -42 -98 -54 4 -5 -2 -6 -11 -2 -13 5
-15 3 -9 -7 5 -8 4 -11 -3 -6 -13 8 -262 -130 -262 -145 0 -6 -3 -8 -8 -5 -11
7 -113 -60 -104 -69 4 -5 2 -5 -5 -1 -7 3 -69 -26 -138 -65 -112 -63 -124 -73
-113 -87 12 -15 11 -15 -4 -4 -14 11 -22 11 -48 -3 -18 -9 -28 -21 -24 -27 4
-7 3 -8 -5 -4 -7 4 -105 -47 -234 -121 -122 -71 -331 -192 -463 -269 -133 -76
-239 -143 -236 -148 3 -5 0 -6 -5 -3 -6 4 -78 -32 -159 -79 -82 -47 -177 -102
-211 -122 -34 -20 -60 -39 -57 -44 3 -4 -1 -5 -9 -3 -19 8 -95 -50 -102 -77
-3 -13 -4 -589 -3 -1281 l3 -1259 28 -24 c51 -44 72 -37 302 100 66 39 128 74
138 78 10 4 16 12 12 18 -4 6 1 7 11 3 13 -5 15 -3 9 7 -5 9 -4 11 4 6 6 -4
48 15 94 42 45 27 101 59 125 71 23 12 42 27 42 33 0 6 2 9 5 6 3 -3 103 50
222 118 119 68 217 124 219 124 2 0 4 -18 4 -40 0 -75 13 -86 242 -216 117
-67 228 -126 247 -133 42 -14 153 -14 202 -1 19 5 89 41 155 79 324 186 370
214 388 231 14 13 21 37 23 77 6 84 -13 107 -138 178 -57 32 -122 70 -144 85
-22 14 -61 39 -87 53 -58 33 -68 51 -68 116 l0 49 113 65 c62 36 131 75 152
87 153 85 225 134 213 142 -9 6 -6 7 9 3 25 -7 68 16 55 30 -4 5 -2 5 5 1 16
-9 244 123 236 137 -3 6 -1 7 5 3 8 -5 239 118 259 138 5 4 -22 56 -27 53 -3
-1 -56 -31 -118 -66 -80 -46 -109 -67 -100 -74 9 -6 7 -7 -6 -3 -12 4 -44 -10
-92 -39 -41 -25 -77 -45 -80 -45 -2 0 -37 -20 -77 -44 -39 -24 -87 -51 -105
-60 -19 -10 -30 -21 -26 -28 4 -6 3 -8 -4 -4 -6 3 -118 -55 -249 -130 -222
-127 -285 -167 -240 -151 11 4 16 3 12 -4 -4 -5 -15 -7 -25 -4 -21 7 -53 -21
-44 -37 4 -7 2 -8 -5 -4 -6 4 -8 12 -5 18 6 9 -9 2 -55 -27 -9 -6 -36 -21 -60
-34 -34 -18 -41 -25 -30 -33 11 -8 10 -9 -4 -4 -19 6 -147 -61 -147 -77 0 -4
-4 -6 -8 -3 -12 7 -94 -49 -85 -58 4 -4 1 -5 -7 -2 -15 6 -204 -97 -195 -106
3 -2 -1 -5 -8 -5 -23 0 -266 -146 -260 -156 3 -6 1 -7 -5 -3 -13 8 -403 -214
-396 -225 2 -4 -1 -11 -7 -15 -8 -5 -9 -3 -4 6 8 14 8 14 -48 -15 -38 -19 -39
-19 -75 0 l-37 20 0 980 c0 730 3 985 12 1000 6 12 110 77 230 146 363 209
727 419 943 544 258 149 415 240 865 500 198 114 424 245 503 292 l142 84 0
190 c0 231 -9 258 -93 266 -34 3 -53 -3 -102 -32z m-125 -99 c0 -2 -7 -7 -16
-10 -8 -3 -12 -2 -9 4 6 10 25 14 25 6z m-43 -31 c0 -8 -4 -12 -9 -9 -5 3 -6
10 -3 15 9 13 12 11 12 -6z m-653 -396 c-3 -6 -11 -8 -17 -6 -7 2 -21 0 -32
-5 -19 -9 -19 -8 -2 6 11 8 26 12 35 9 11 -5 13 -3 7 7 -5 9 -4 11 4 6 6 -4 9
-12 5 -17z m-169 -89 c3 -6 -1 -7 -9 -4 -18 7 -21 14 -7 14 6 0 13 -4 16 -10z
m-676 -373 c-2 -1 -11 -8 -21 -15 -12 -10 -18 -10 -24 -1 -4 7 -3 9 4 5 6 -3
13 -2 17 4 3 5 11 10 17 10 6 0 9 -1 7 -3z m-159 -91 c0 -2 -7 -7 -16 -10 -8
-3 -12 -2 -9 4 6 10 25 14 25 6z m-135 -96 c-3 -5 -12 -10 -18 -10 -7 0 -6 4
3 10 19 12 23 12 15 0z m-260 -158 c-3 -3 -11 0 -18 7 -9 10 -8 11 6 5 10 -3
15 -9 12 -12z m-279 -149 c-3 -20 -22 -28 -31 -14 -4 7 0 8 10 5 9 -4 15 -3
14 2 -2 13 0 24 5 24 2 0 3 -8 2 -17z m2599 -1113 c4 -6 -1 -7 -11 -3 -13 5
-16 3 -11 -10 9 -23 -5 -28 -28 -10 -15 12 -16 14 -3 10 9 -3 19 0 22 9 6 16
22 18 31 4z m-190 -120 c3 -5 1 -10 -4 -10 -6 0 -11 5 -11 10 0 6 2 10 4 10 3
0 8 -4 11 -10z m-90 -40 c3 -6 -1 -7 -9 -4 -18 7 -21 14 -7 14 6 0 13 -4 16
-10z m-69 -46 c1 -9 0 -13 -4 -10 -3 4 -7 14 -8 22 -1 9 0 13 4 10 3 -4 7 -14
8 -22z m-79 -28 c-10 -8 -17 -16 -15 -19 2 -3 0 -8 -4 -12 -3 -4 -5 1 -4 10 1
9 9 21 17 26 22 14 26 10 6 -5z m-207 -146 c-8 -5 -19 -10 -25 -10 -5 0 -3 5
5 10 8 5 20 10 25 10 6 0 3 -5 -5 -10z m-310 -180 c0 -5 -2 -10 -4 -10 -3 0
-8 5 -11 10 -3 6 -1 10 4 10 6 0 11 -4 11 -10z m-42 -16 c-1 -5 -9 -9 -16 -10
-10 -2 -11 1 -1 12 12 14 24 13 17 -2z m-403 -213 c3 -5 2 -12 -3 -15 -5 -3
-9 1 -9 9 0 17 3 19 12 6z m-180 -119 c-3 -3 -11 0 -18 7 -9 10 -8 11 6 5 10
-3 15 -9 12 -12z m-285 -147 c-7 -8 -17 -15 -23 -15 -6 0 -2 7 9 15 25 19 30
19 14 0z m-25 -46 c-4 -5 -12 -9 -18 -8 -9 0 -8 2 1 6 6 2 9 10 6 15 -4 7 -2
8 5 4 6 -4 9 -12 6 -17z m-240 -119 c3 -6 -1 -7 -9 -4 -18 7 -21 14 -7 14 6 0
13 -4 16 -10z m-105 -45 c0 -2 -10 -9 -22 -15 -22 -11 -22 -10 -4 4 21 17 26
19 26 11z m-500 -320 c0 -2 -6 -5 -13 -8 -8 -3 -14 1 -14 8 0 7 6 11 14 8 7
-3 13 -6 13 -8z m-155 -75 c4 -6 -1 -7 -11 -3 -11 4 -15 3 -10 -5 3 -6 2 -13
-3 -16 -7 -5 -8 11 -2 32 2 6 21 1 26 -8z"/>
<path d="M5102 4046 c6 -29 -4 -32 -46 -16 -24 9 -26 7 -26 -16 0 -14 5 -35
12 -47 6 -12 10 -45 9 -73 -1 -29 2 -55 8 -59 7 -4 11 6 11 29 0 54 8 68 32
55 13 -7 45 -8 92 -3 67 7 84 8 105 5 5 0 15 -32 21 -71 6 -38 15 -70 20 -70
4 0 22 14 40 30 29 27 32 35 27 70 -4 32 -2 40 11 40 12 0 13 3 5 11 -6 6 -9
18 -6 26 4 11 0 14 -13 11 -11 -2 -28 7 -41 23 -29 35 -82 55 -163 64 -36 3
-73 9 -84 12 -16 4 -18 1 -14 -21z"/>
<path d="M5080 3870 c0 -5 4 -10 9 -10 6 0 13 5 16 10 3 6 -1 10 -9 10 -9 0
-16 -4 -16 -10z"/>
<path d="M5242 3869 c2 -7 10 -15 17 -17 8 -3 12 1 9 9 -2 7 -10 15 -17 17 -8
3 -12 -1 -9 -9z"/>
<path d="M5102 3816 c1 -10 8 -17 13 -17 15 1 12 24 -3 29 -9 3 -13 -2 -10
-12z"/>
<path d="M5220 3805 c0 -9 5 -15 11 -13 6 2 11 8 11 13 0 5 -5 11 -11 13 -6 2
-11 -4 -11 -13z"/>
<path d="M3035 3731 c-16 -10 -138 -80 -270 -156 -132 -76 -292 -168 -355
-205 -63 -37 -212 -122 -330 -190 -118 -67 -225 -134 -237 -147 -23 -24 -23
-29 -23 -263 0 -131 4 -250 9 -263 10 -25 71 -67 98 -67 13 0 937 527 1203
686 l55 32 -3 270 -3 270 -44 26 c-52 31 -61 31 -100 7z m-120 -331 c15 -47
-14 -72 -225 -194 -113 -65 -262 -152 -331 -192 -70 -41 -134 -74 -143 -74
-24 0 -30 26 -16 61 14 32 23 38 465 292 121 70 225 127 232 127 6 0 14 -9 18
-20z m-138 -252 c-3 -8 -6 -5 -6 6 -1 11 2 17 5 13 3 -3 4 -12 1 -19z m73 -29
c0 -47 -20 -53 -21 -6 -1 31 -2 30 -14 -13 l-13 -45 -1 44 c-1 31 4 48 16 57
25 18 33 9 33 -37z m-73 -56 c-2 -16 -4 -5 -4 22 0 28 2 40 4 28 2 -13 2 -35
0 -50z m-27 -11 c0 -55 -11 -82 -35 -82 -18 0 -18 106 1 124 27 27 34 18 34
-42z m-62 -15 c4 -32 -14 -67 -33 -67 -11 0 -15 11 -15 38 0 60 41 85 48 29z
m-77 -70 c25 7 25 -13 0 -27 -30 -16 -31 -14 -29 53 1 54 2 56 5 16 4 -41 7
-46 24 -42z m-71 14 c0 -6 -4 -13 -10 -16 -5 -3 -10 -22 -10 -41 0 -19 -4 -34
-10 -34 -11 0 -8 69 3 88 10 14 27 16 27 3z m-50 -48 c0 -9 -8 -26 -17 -37
-17 -20 -17 -20 0 -7 18 14 22 5 8 -18 -13 -20 -41 -6 -41 21 0 28 28 71 41
63 5 -4 9 -13 9 -22z m-140 -137 c-18 -18 -22 -19 -30 -6 -13 20 -13 110 0
110 6 0 10 -20 10 -45 0 -45 12 -60 24 -29 3 9 7 37 8 62 2 43 2 42 5 -12 4
-50 1 -63 -17 -80z m80 114 c0 -5 -6 -10 -12 -11 -10 0 -10 -2 0 -6 24 -10 8
-73 -20 -73 -13 0 -9 30 5 31 10 0 10 2 0 6 -14 5 -18 45 -6 56 10 11 33 8 33
-3z"/>
<path d="M2720 3055 c1 -26 2 -28 11 -12 8 14 8 22 0 30 -8 8 -11 3 -11 -18z"/>
<path d="M2655 3027 c-4 -10 -5 -21 -1 -24 10 -10 18 4 13 24 -4 17 -4 17 -12
0z"/>
<path d="M3392 3706 c-35 -40 -50 -103 -32 -137 8 -15 10 -48 5 -106 l-7 -85
49 28 c75 43 75 41 64 117 -7 50 -6 77 5 113 27 90 -26 135 -84 70z"/>
<path d="M5340 3690 c0 -32 14 -40 24 -14 9 24 7 31 -9 38 -11 4 -15 -2 -15
-24z"/>
<path d="M5075 3561 c-29 -17 -105 -123 -169 -234 l-28 -47 25 -34 c14 -18 40
-39 57 -46 50 -21 57 -5 66 145 8 147 21 187 67 215 17 11 28 20 22 20 -5 0
-24 -8 -40 -19z"/>
<path d="M5390 3538 c-5 -13 -26 -92 -46 -176 l-36 -152 24 -20 c25 -21 72
-34 109 -28 20 3 27 15 50 103 53 192 32 294 -59 295 -24 0 -35 -6 -42 -22z"/>
<path d="M4239 2993 c-13 -16 -12 -17 4 -4 16 13 21 21 13 21 -2 0 -10 -8 -17
-17z"/>
<path d="M5028 2839 c14 -64 8 -231 -11 -284 -28 -81 -27 -312 2 -602 l25
-242 26 -6 c15 -3 38 -2 52 4 24 9 26 16 38 128 7 65 14 199 15 298 3 161 27
469 42 535 3 14 18 -96 34 -245 34 -328 105 -835 119 -849 10 -10 72 -12 87
-3 10 6 17 234 14 452 -1 83 -2 304 -2 493 -1 316 -2 343 -17 336 -110 -46
-296 -41 -414 10 -16 7 -17 4 -10 -25z"/>
<path d="M4792 2808 c-44 -44 27 -196 74 -157 18 15 18 43 -3 99 -26 70 -44
85 -71 58z"/>
<path d="M5024 1668 c-11 -12 -56 -38 -101 -59 -63 -29 -83 -44 -83 -59 0 -38
103 -48 170 -15 14 7 51 15 82 18 79 8 81 10 74 70 -4 28 -9 54 -12 58 -2 4
-20 2 -40 -4 -26 -8 -40 -8 -54 1 -14 9 -21 7 -36 -10z"/>
<path d="M5344 1508 c-10 -24 -43 -69 -71 -100 -29 -32 -53 -63 -53 -68 0 -6
16 -18 36 -26 29 -12 42 -13 72 -3 55 18 79 37 91 70 6 17 22 44 36 61 26 30
32 71 15 98 -7 12 -12 12 -22 2 -15 -15 -60 -16 -74 -2 -7 7 -17 -3 -30 -32z"/>
</g>
</svg>
