<?xml version="1.0" standalone="no"?>
<!DOCTYPE svg PUBLIC "-//W3C//DTD SVG 20010904//EN"
 "http://www.w3.org/TR/2001/REC-SVG-20010904/DTD/svg10.dtd">
<svg version="1.0" xmlns="http://www.w3.org/2000/svg"
 width="2000.000000pt" height="2000.000000pt" viewBox="0 0 2000.000000 2000.000000"
 preserveAspectRatio="xMidYMid meet">

<g transform="translate(0.000000,2000.000000) scale(0.100000,-0.100000)"
fill="#000000" stroke="none">
<path d="M11938 16536 c-21 -8 -471 -264 -1000 -569 -530 -306 -1298 -749
-1708 -985 -805 -463 -820 -473 -876 -587 l-29 -60 0 -4100 0 -4100 27 -57
c39 -84 98 -141 209 -204 149 -84 230 -101 344 -71 29 8 178 87 350 187 489
283 963 556 1481 855 88 51 320 185 515 297 368 213 527 305 914 527 127 73
247 149 268 169 45 44 93 138 106 207 11 62 14 355 4 355 -5 0 -26 -11 -48
-24 -22 -13 -157 -91 -300 -173 -143 -83 -363 -210 -490 -283 -382 -221 -597
-346 -870 -503 -143 -82 -273 -157 -290 -167 -257 -149 -431 -248 -475 -273
-30 -16 -66 -38 -80 -47 -14 -9 -82 -49 -151 -88 -133 -76 -169 -85 -214 -56
-39 26 -45 63 -45 295 l0 218 -122 -72 c-312 -180 -414 -237 -430 -237 -10 0
-27 9 -38 20 -20 20 -20 33 -20 3038 0 2950 1 3018 20 3057 36 76 17 63 540
365 80 46 181 104 225 130 44 26 188 109 320 185 213 122 541 312 940 542 72
42 177 103 235 136 58 33 141 82 185 107 44 26 204 118 355 205 151 87 325
187 385 223 128 75 161 84 190 52 18 -20 20 -40 25 -235 l5 -213 73 42 73 43
-1 751 c0 790 0 774 -45 861 -9 18 -32 50 -52 72 -39 43 -194 140 -264 164
-52 19 -191 19 -241 1z"/>
<path d="M14745 12293 c-117 -16 -233 -73 -310 -154 -98 -102 -130 -215 -96
-333 l14 -49 19 67 c10 37 27 84 37 105 18 35 96 121 110 121 3 0 6 -60 6
-133 0 -97 5 -146 18 -187 26 -86 28 -86 75 -39 37 37 46 41 75 35 39 -8 74
-42 81 -79 14 -77 -63 -167 -142 -167 l-30 0 -7 -147 c-3 -82 -10 -209 -16
-284 -18 -273 24 -460 122 -543 118 -100 362 -144 548 -101 131 31 259 123
307 221 25 51 26 61 21 152 -4 78 -15 134 -60 287 -80 275 -85 298 -102 456
-42 393 -78 505 -209 635 -77 77 -149 118 -235 134 -52 10 -164 11 -226 3z"/>
<path d="M15302 9148 c-46 -22 -131 -57 -190 -77 -59 -21 -115 -42 -125 -47
-12 -7 -26 -38 -38 -85 -11 -41 -29 -105 -41 -142 -18 -58 -19 -70 -7 -78 8
-5 10 -9 4 -9 -10 0 -4 -189 9 -300 3 -25 8 -101 11 -170 4 -69 10 -188 14
-265 l8 -140 -1 128 c0 70 1 127 4 127 3 0 7 116 8 257 l3 257 51 150 c28 83
56 165 62 183 8 25 21 36 66 54 30 12 57 25 60 29 3 3 28 20 55 37 52 33 135
110 135 125 0 10 9 13 -88 -34z"/>
<path d="M15252 6054 c-8 -8 -33 -14 -62 -14 -28 0 -50 -2 -50 -6 0 -3 7 -37
16 -76 9 -38 12 -73 8 -78 -24 -20 -114 -40 -188 -40 -111 0 -328 62 -379 108
-17 16 -17 17 -1 29 10 7 45 14 78 14 l61 2 -60 7 c-115 15 -168 11 -215 -12
-34 -17 -46 -30 -48 -49 -8 -66 96 -127 324 -189 82 -23 183 -52 224 -65 118
-37 134 -39 184 -17 60 27 71 50 56 114 -13 53 -7 67 30 68 8 0 26 9 39 19 23
17 24 23 18 87 -3 38 -9 79 -14 90 -7 19 -10 20 -21 8z"/>
</g>
</svg>
